<?xml version="1.0" encoding="utf-8"?>
<!-- Generator: Adobe Illustrator 15.1.0, SVG Export Plug-In . SVG Version: 6.00 Build 0)  -->
<!DOCTYPE svg PUBLIC "-//W3C//DTD SVG 1.1//EN" "http://www.w3.org/Graphics/SVG/1.1/DTD/svg11.dtd">
<svg version="1.1" id="Capa_1" xmlns="http://www.w3.org/2000/svg" xmlns:xlink="http://www.w3.org/1999/xlink" x="0px" y="0px"
	 width="40px" height="40px" viewBox="0 0 40 40" enable-background="new 0 0 40 40" xml:space="preserve">
<g>
	<g>
		<g>
			<path fill="#2F6F80" d="M20,0C8.955,0,0,8.955,0,20c0,11.048,8.955,20,20,20c11.048,0,20-8.952,20-20C40,8.955,31.048,0,20,0z
				 M30.666,21.334h-9.332v9.332C21.334,31.4,20.733,32,20,32c-0.736,0-1.333-0.6-1.333-1.334v-9.332H9.333
				C8.597,21.334,8,20.733,8,20c0-0.736,0.597-1.333,1.333-1.333h9.333V9.333C18.667,8.597,19.264,8,20,8
				c0.733,0,1.334,0.597,1.334,1.333v9.333h9.332C31.4,18.667,32,19.264,32,20C32,20.733,31.4,21.334,30.666,21.334z"/>
		</g>
	</g>
</g>
</svg>
